<?xml version="1.0" encoding="UTF-8"?>
<svg version="1.1" xmlns="http://www.w3.org/2000/svg" width="750" height="750">
<path d="M0 0 C12.13071315 6.68448717 22.03342534 19.57655801 31.69360352 29.31591797 C34.97448491 32.62357686 38.25879267 35.92777912 41.54516602 39.22998047 C42.28183502 39.97494781 43.01850403 40.71991516 43.77749634 41.48745728 C47.82118352 45.55001358 51.95412764 49.43414487 56.30964661 53.16148376 C59.03608872 55.532158 61.58919922 58.06293386 64.13110352 60.62841797 C64.64423096 61.14275391 65.1573584 61.65708984 65.68603516 62.18701172 C69.15610286 65.69268391 72.42106659 69.329555 75.61938477 73.08544922 C77.56264364 75.23822387 79.76736574 76.93471019 82.06860352 78.69091797 C83.21338862 79.81861673 84.35562877 80.94901196 85.48510742 82.09204102 C87.39373224 84.01920474 89.32110124 85.92685176 91.24829102 87.83544922 C92.81345666 89.39137696 94.37855921 90.94736817 95.94360352 92.50341797 C96.7209082 93.27234375 97.49821289 94.04126953 98.29907227 94.83349609 C102.55682011 99.07335424 106.64634637 103.38926008 110.56274414 107.9465332 C112.44374995 110.12548691 114.41380177 112.2149161 116.38110352 114.31591797 C134.61661674 134.68767977 146.7523759 159.47499782 145.29077148 187.37890625 C141.99657077 221.66031371 115.96918596 245.79554333 92.06860352 267.69091797 C90.42423878 269.20662595 88.78142609 270.72400207 87.13867188 272.24145508 C86.0959881 273.20404465 85.05253639 274.16580309 84.00830078 275.12670898 C78.90844666 279.8225987 73.86181945 284.57463148 68.81225586 289.32446289 C65.14676923 292.76546847 61.45221464 296.16374152 57.69360352 299.50341797 C53.4411991 303.29205344 49.44471392 307.29604368 45.44360352 311.34716797 C42.7308609 314.0242166 39.89296551 316.50381313 36.99829102 318.97998047 C34.9355183 320.8089166 33.00269632 322.72672255 31.06860352 324.69091797 C23.65689274 332.17444764 15.55591172 338.46689195 7.06860352 344.69091797 C6.2784082 345.30064453 5.48821289 345.91037109 4.67407227 346.53857422 C-15.12207781 361.34353143 -39.81617829 367.39548973 -64.25512695 364.40673828 C-87.6922533 360.36043042 -107.74104772 346.41926176 -124.93139648 330.69091797 C-125.57415527 330.10842285 -126.21691406 329.52592773 -126.87915039 328.92578125 C-133.28546383 323.10794569 -139.60301411 317.34731733 -145.13452148 310.67529297 C-148.01621867 307.49289695 -151.25723541 304.69791803 -154.45068359 301.83569336 C-158.29366448 298.35957263 -161.70935447 294.65427834 -165.08764648 290.72216797 C-166.85187316 288.77852841 -168.6697279 287.12280482 -170.68139648 285.44091797 C-174.21054948 282.45208104 -177.32978813 279.17443036 -180.43139648 275.75341797 C-185.22300003 270.47861445 -190.1467098 265.35941888 -195.18139648 260.31591797 C-195.83043945 259.66244385 -196.47948242 259.00896973 -197.14819336 258.33569336 C-200.99357727 254.50153329 -204.96453208 250.88178788 -209.07446289 247.33398438 C-211.68141465 245.02728107 -214.07407522 242.56868393 -216.49389648 240.06591797 C-222.18949837 234.19446088 -222.18949837 234.19446088 -228.93139648 229.69091797 C-236.5199304 229.91476853 -242.75582949 232.24788257 -249.74389648 235.06591797 C-250.87190674 235.51 -251.99991699 235.95408203 -253.16210938 236.41162109 C-256.75585268 237.82821621 -260.34368343 239.25912868 -263.93139648 240.69091797 C-268.57515414 242.52953029 -273.22170139 244.36101369 -277.86889648 246.19091797 C-279.03122803 246.64958252 -280.19355957 247.10824707 -281.39111328 247.58081055 C-290.51090887 251.1667649 -299.67979019 254.60494416 -308.88330078 257.96972656 C-314.67059246 260.09067006 -320.42852891 262.26544325 -326.15795898 264.53857422 C-327.33535645 265.00320068 -328.51275391 265.46782715 -329.72583008 265.9465332 C-331.96973841 266.83575758 -334.20991474 267.73447951 -336.44555664 268.64428711 C-341.84756587 270.77883402 -346.10679076 272.26679707 -351.93139648 271.69091797 C-352.6136837 269.42744923 -352.6136837 269.42744923 -352.93139648 266.69091797 C-351.79081154 264.74963665 -351.79081154 264.74963665 -350.01480103 262.90641785 C-349.36254169 262.2169425 -348.71028236 261.52746716 -348.0382576 260.81709862 C-347.34299343 260.115459 -346.64772926 259.41381939 -345.93139648 258.69091797 C-345.28415997 258.0209762 -344.63692345 257.35103443 -343.9700737 256.6607914 C-341.86498072 254.50148488 -339.73445394 252.37010805 -337.59692383 250.24291992 C-336.79438675 249.44023682 -335.99184967 248.63755371 -335.16499329 247.81054688 C-332.53480587 245.18105112 -329.90110229 242.55510783 -327.26733398 239.92919922 C-325.42821715 238.09195008 -323.58932292 236.25447809 -321.75064087 234.41679382 C-317.41667939 230.08624922 -313.08050199 225.75793524 -308.74321711 221.43071955 C-303.82163133 216.52031389 -298.90288406 211.60706911 -293.98437953 206.69357741 C-285.57279533 198.29066014 -277.15912244 189.88983857 -268.74302673 181.49143982 C-267.38916214 180.14038987 -266.03538399 178.7892533 -264.68171406 177.43800831 C-263.18717917 175.94622904 -261.69221343 174.45488144 -260.19715881 172.96362305 C-257.98526525 170.7449518 -255.79101033 168.51053555 -253.60351562 166.26782227 C-249.54868789 162.11736216 -245.48094774 157.97987829 -241.4032526 153.85190105 C-238.94533171 151.36255206 -236.49338872 148.8678366 -234.05371094 146.3605957 C-231.22875059 143.45795793 -228.37981468 140.57993934 -225.52905273 137.70263672 C-224.22098412 136.34811653 -224.22098412 136.34811653 -222.88648987 134.9662323 C-222.06220993 134.14149918 -221.23792999 133.31676605 -220.38867188 132.46704102 C-219.67095108 131.73599655 -218.95323029 131.00495209 -218.21376038 130.25175476 C-215.24870493 128.22404672 -213.45395432 128.23528182 -209.93139648 128.69091797 C-207.36889648 130.87841797 -207.36889648 130.87841797 -204.93139648 133.69091797 C-201.72576067 136.97135195 -198.41621149 140.07663933 -194.99389648 143.12841797 C-189.0686772 148.49679279 -183.37607659 154.10351323 -177.70626831 159.73880005 C-176.68918994 160.74903914 -175.67040691 161.75756489 -174.64993286 162.76437378 C-173.20212811 164.19431057 -171.76191534 165.63192175 -170.32202148 167.06982422 C-169.05406738 168.33161499 -169.05406738 168.33161499 -167.76049805 169.61889648 C-165.93139648 171.69091797 -165.93139648 171.69091797 -165.93139648 173.69091797 C-165.27139648 173.69091797 -164.61139648 173.69091797 -163.93139648 173.69091797 C-163.39514648 174.37154297 -162.85889648 175.05216797 -162.30639648 175.75341797 C-160.34973212 178.17350285 -158.5891839 179.92964004 -156.2428894 181.91870117 C-152.16970737 185.44078892 -148.35363135 189.15280317 -144.57250977 192.98388672 C-143.8851474 193.67592194 -143.19778503 194.36795715 -142.48959351 195.08096313 C-141.01101792 196.5699646 -139.533551 198.06006764 -138.0571022 199.55117798 C-135.71292753 201.91756693 -133.36464371 204.27980538 -131.0151062 206.64086914 C-124.33981324 213.34957481 -117.66870988 220.06240147 -111.00805664 226.78564453 C-106.92048593 230.91103516 -102.82549045 235.02893208 -98.72576523 239.14224243 C-97.17377572 240.70223899 -95.62455757 242.26499813 -94.0782814 243.83065796 C-84.68262795 253.3420588 -75.73329133 262.15702262 -63.55639648 268.06591797 C-62.57928711 268.54802734 -61.60217773 269.03013672 -60.59545898 269.52685547 C-52.50097029 273.06374349 -45.20381805 272.06829552 -37.06811523 269.12841797 C-27.02952063 264.52791633 -19.47711982 256.48208194 -11.88842773 248.69091797 C-9.06111144 245.79494719 -6.10164879 243.11623335 -3.02124023 240.49169922 C3.99253558 234.44805314 10.72635675 228.09903713 17.22485352 221.50732422 C19.03553687 219.72349422 20.89818875 218.04303978 22.81860352 216.37841797 C23.4721582 215.80994141 24.12571289 215.24146484 24.79907227 214.65576172 C26.52477117 213.16174012 28.25789445 211.67628925 29.99438477 210.19482422 C38.20408526 203.05153577 46.74953907 194.48005264 48.43969727 183.21826172 C48.78642581 169.69584858 41.67550509 159.05299479 32.90000153 149.27444267 C30.593109 146.89223806 28.24442346 144.5625624 25.87036133 142.24731445 C24.98804337 141.37419617 24.1057254 140.50107788 23.19667053 139.60150146 C21.2983653 137.7245008 19.39763355 135.85042382 17.49219513 133.98071098 C14.47302006 131.01708996 11.4674995 128.03986406 8.46405029 125.06031799 C-0.07098181 116.59724628 -8.62396656 108.15245381 -17.18969727 99.72045898 C-21.93707476 95.04696449 -26.67341505 90.36255664 -31.39840627 85.66642815 C-34.37568791 82.70863854 -37.36589009 79.76480869 -40.36679125 76.83099544 C-42.67359553 74.56794747 -44.96055885 72.28498472 -47.25073242 70.00512695 C-48.07470016 69.207444 -48.89866791 68.40976105 -49.74760437 67.58790588 C-55.72804611 61.57666144 -59.32377199 55.63871739 -60.36889648 47.12841797 C-59.398544 39.50421989 -57.57946725 35.01438697 -51.93139648 29.69091797 C-51.06901367 28.81693359 -50.20663086 27.94294922 -49.31811523 27.04248047 C-44.62804577 22.30489944 -39.91097426 17.6877095 -34.82202148 13.37451172 C-32.75880693 11.53722768 -30.8920949 9.5724781 -28.99389648 7.56591797 C-21.0624435 -0.33479295 -11.06145761 -4.93974646 0 0 Z " fill="#4491F1" transform="translate(405.931396484375,270.30908203125)"/>
<path d="M0 0 C3.17285236 2.78428109 6.27025138 5.64615339 9.34765625 8.53515625 C11.45711064 10.49548868 13.58945942 12.36054683 15.8125 14.1875 C18.94255556 16.82612172 21.52746046 19.80784601 24.1796875 22.91796875 C28.14876613 27.4577089 32.39155155 31.68698086 37.0625 35.5 C39.43649085 37.52041775 41.25818118 39.39138936 43.25 41.75 C46.64200011 45.74235411 50.39792378 49.12980323 54.375 52.53125 C56.45114423 54.48381422 58.25221692 56.40276873 60.09765625 58.55859375 C64.46318874 63.6255399 69.17937426 68.32958961 73.9152832 73.0456543 C75.43491668 74.5599258 76.94912517 76.0794743 78.46289062 77.59960938 C83.27253675 82.41210406 88.1397199 87.09663581 93.31274414 91.5222168 C95.67894994 93.59465837 97.83251118 95.84767222 100 98.125 C105.75772154 104.17031793 105.75772154 104.17031793 113 108 C115.29480703 107.68742192 115.29480703 107.68742192 117.64111328 106.83154297 C118.52204651 106.5409198 119.40297974 106.25029663 120.31060791 105.9508667 C124.47533678 104.47837706 128.61881028 102.96771012 132.7421875 101.3828125 C133.63181183 101.04377899 134.52143616 100.70474548 135.4380188 100.35543823 C137.30583962 99.64277719 139.17301063 98.9284109 141.03955078 98.21240234 C143.85944504 97.13096537 146.68148104 96.05528051 149.50390625 94.98046875 C160.43695498 90.81415021 160.43695498 90.81415021 171.2578125 86.3671875 C176.53725182 84.12684366 181.91100692 82.24324125 187.32678223 80.36604309 C192.55256446 78.54258496 197.70930608 76.58155281 202.8515625 74.53515625 C204.31379267 73.95765846 205.77603224 73.38018446 207.23828125 72.80273438 C209.45527644 71.92598879 211.66977552 71.04435995 213.87939453 70.14916992 C216.07284204 69.26288763 218.27359182 68.397445 220.4765625 67.53515625 C221.13081207 67.26445816 221.78506165 66.99376007 222.45913696 66.71485901 C227.0084426 64.9616571 230.2642344 64.97080098 235 66 C235.42675467 69.38988855 235.26360312 70.65544625 233.15161133 73.41601562 C232.3036499 74.23779297 231.45568848 75.05957031 230.58203125 75.90625 C229.65712891 76.81503906 228.73222656 77.72382813 227.77929688 78.66015625 C226.79067851 79.60709869 225.80174353 80.55371068 224.8125 81.5 C223.84195582 82.44544251 222.87254179 83.39204665 221.90429688 84.33984375 C220.10693785 86.09366813 218.30448991 87.84230324 216.49536133 89.58398438 C213.96944652 92.02958196 211.48018709 94.50811268 209 97 C153 153 153 153 150.5 155.4375 C147.94454137 157.97522953 147.94454137 157.97522953 145.6875 160.875 C143.14896674 163.9829239 140.23077381 166.47633934 137.18359375 169.07421875 C133.26987093 172.52585623 129.65853186 176.28235362 126 180 C125.24106445 180.75748535 124.48212891 181.5149707 123.70019531 182.29541016 C120.99069092 185.00932423 118.30455619 187.74472556 115.62109375 190.484375 C114.08718368 192.04038013 112.55184999 193.59496482 111.01586914 195.14892578 C109.959157 196.22083888 108.90513661 197.29541191 107.85375977 198.37255859 C106.32490524 199.93777481 104.78658422 201.49312031 103.24609375 203.046875 C101.87988892 204.43664551 101.87988892 204.43664551 100.48608398 205.85449219 C96.84612919 208.99579855 96.84612919 208.99579855 94 209 C89.93631844 206.90024285 86.9901838 204.23115011 83.77868652 200.99900818 C83.02649613 200.24620602 83.02649613 200.24620602 82.25910997 199.47819573 C80.58656535 197.80193255 78.92128212 196.11863962 77.25585938 194.43530273 C76.055009 193.22897421 74.85369283 192.02310922 73.65194702 190.81767273 C71.06660781 188.22262968 68.48436146 185.62456116 65.90440369 183.02416801 C61.8149713 178.90284638 57.71732367 174.78975933 53.61828613 170.67799377 C43.43197158 160.45762663 33.25487085 150.22809761 23.08288574 139.99346924 C15.18760852 132.04958164 7.28907009 124.10900447 -0.6201148 116.17896038 C-4.6848065 112.10282438 -8.74248359 108.01987629 -12.79484463 103.93148315 C-15.33414858 101.37280143 -17.87986363 98.8205703 -20.42728806 96.26997566 C-21.59522977 95.09806034 -22.76062673 93.9236016 -23.923069 92.74623108 C-37.34467105 79.15872515 -51.29857656 65.8806441 -71.3215332 65.31665039 C-81.02811446 64.99423931 -87.3940283 60.88545512 -94 54 C-96.31105438 51.27393233 -98.5493132 48.50047722 -100.7734375 45.703125 C-103.36032268 42.56255562 -106.15889006 39.7533902 -109.0703125 36.91796875 C-112.21896004 33.78844255 -115.33122639 30.55280487 -118 27 C-118 26.34 -118 25.68 -118 25 C-118.66 25 -119.32 25 -120 25 C-125.23948849 19.32388747 -127.53632813 12.9757162 -127.3046875 5.29296875 C-126.26392554 -2.53943213 -120.93896615 -8.20556906 -115 -13 C-77.86062491 -40.02300982 -32.59498492 -27.6029602 0 0 Z " fill="#6DA8F4" transform="translate(462,155)"/>
<path d="M0 0 C7.06782059 4.766353 12.79048521 11.91186735 18.28515625 18.33984375 C20.32828136 20.71738171 22.4250059 23.04187442 24.52734375 25.3671875 C25.28660156 26.21152344 26.04585938 27.05585938 26.828125 27.92578125 C28.1953029 29.4435187 29.56690471 30.95729796 30.9453125 32.46484375 C37.63722561 39.89537862 43.17574378 46.49697457 43.15234375 56.8046875 C43.15621094 58.50431641 43.15621094 58.50431641 43.16015625 60.23828125 C43.02734375 63.3671875 43.02734375 63.3671875 42.39453125 65.3671875 C41.81025424 68.54963249 42.95064991 70.91830942 44.02734375 73.9296875 C44.61515625 75.63318359 44.61515625 75.63318359 45.21484375 77.37109375 C49.17967335 86.86834951 55.53113513 94.45641013 62.80493164 101.58300781 C63.65463028 102.43168427 64.50432892 103.28036072 65.379776 104.15475464 C67.68253464 106.45104135 69.99382913 108.73827799 72.30927205 111.02175999 C74.74570548 113.42914781 77.17012948 115.8485711 79.59580994 118.26678467 C84.18470705 122.83817673 88.78327492 127.39970053 93.38589424 131.95727229 C100.13316758 138.63919984 106.86774717 145.33390286 113.59982204 152.03113937 C114.09592277 152.52467069 114.5920235 153.018202 115.10315758 153.52668881 C116.09300727 154.51143907 117.08282341 155.49622305 118.07260507 156.48104167 C121.41405332 159.80490321 124.76121595 163.12292314 128.11012268 166.43927002 C129.86651834 168.18244163 131.62286359 169.92566403 133.37915039 171.66894531 C134.16944641 172.44936188 134.95974243 173.22977844 135.77398682 174.03384399 C150.27226507 188.44563293 150.27226507 188.44563293 151.40234375 198.8046875 C150.19109119 210.31158679 144.54909987 216.37620697 136.03125 223.6171875 C134.10767661 225.29703327 132.31420879 227.04368969 130.52734375 228.8671875 C127.47906333 231.96396329 124.29594541 234.84614097 120.9921875 237.66796875 C119.72880327 238.76055749 118.48903864 239.88140737 117.28125 241.03515625 C112.32938762 245.66680582 107.36054701 248.14514448 100.51171875 248.49609375 C89.56904668 247.94224685 82.87642685 240.63817082 75.55859375 233.15625 C74.67884888 232.26988861 73.799104 231.38352722 72.8927002 230.4703064 C70.56915458 228.12741079 68.25199068 225.77845721 65.93829346 223.42584229 C62.68672085 220.12194519 59.42501058 216.82807709 56.1619873 213.53549194 C54.43123349 211.78795682 52.70358713 210.03733656 50.97961426 208.28311157 C46.75328628 204.00486798 42.45301901 199.9149543 37.89123535 195.99707031 C34.92162123 193.40028678 32.13120103 190.63335855 29.33984375 187.84765625 C28.75187012 187.26301102 28.16389648 186.67836578 27.55810547 186.07600403 C26.33350347 184.85641136 25.11020235 183.63551112 23.88818359 182.41333008 C22.00896736 180.53633281 20.12184752 178.66751861 18.234375 176.79882812 C17.03987731 175.6072591 15.84584911 174.41521921 14.65234375 173.22265625 C14.08684814 172.66434616 13.52135254 172.10603607 12.9387207 171.5308075 C9.02734375 167.59605197 9.02734375 167.59605197 9.02734375 165.3671875 C8.48368164 165.14804687 7.94001953 164.92890625 7.37988281 164.703125 C4.25067168 162.92613835 1.90048976 160.52613775 -0.61328125 157.9921875 C-1.14032654 157.46705566 -1.66737183 156.94192383 -2.21038818 156.40087891 C-3.31882553 155.29379867 -4.42475671 154.1842042 -5.52832031 153.07226562 C-7.22371926 151.36611775 -8.92957235 149.67094703 -10.63671875 147.9765625 C-11.71288183 146.89907858 -12.78842476 145.82097483 -13.86328125 144.7421875 C-14.37570374 144.23381348 -14.88812622 143.72543945 -15.41607666 143.20166016 C-18.97265625 139.59712841 -18.97265625 139.59712841 -18.97265625 137.3671875 C-19.63265625 137.3671875 -20.29265625 137.3671875 -20.97265625 137.3671875 C-24.23270225 133.92446651 -27.07576662 130.11707464 -29.97265625 126.3671875 C-30.38644531 125.83754395 -30.80023438 125.30790039 -31.2265625 124.76220703 C-46.54913702 104.96654551 -56.35523228 81.85584415 -53.97265625 56.3671875 C-50.82834041 35.54979936 -39.44100231 14.70288715 -23.97265625 0.3671875 C-17.15794438 -3.10402008 -7.02353274 -3.11827035 0 0 Z " fill="#6CA8F4" transform="translate(252.97265625,245.6328125)"/>
<path d="M0 0 C10.23148952 6.46757368 17.91570729 15.19053549 21.09375 27.09375 C22.82648706 39.69893608 21.63821992 51.11938148 14.1015625 61.5859375 C7.64062685 69.77284414 -0.85304128 76.37513028 -11.33984375 78.4296875 C-23.91532954 79.85165056 -35.05180293 77.95061467 -45.453125 70.4375 C-53.47112872 63.71850247 -59.76117461 55.2754054 -60.74365234 44.58007812 C-61.24063667 30.73680563 -60.59200842 20.36606971 -51.36328125 9.3046875 C-37.13834618 -5.3427704 -18.25504 -9.44900999 0 0 Z " fill="#4490F1" transform="translate(329.55078125,191.3203125)"/>
</svg>
